<svg width="47" height="51" viewBox="0 0 47 51" fill="none" xmlns="http://www.w3.org/2000/svg">
<path opacity="0.3" fill-rule="evenodd" clip-rule="evenodd" d="M46.0425 0.82251H0.0424805V50.8225H46.0425V0.82251ZM28.8215 25.0944H23.8295V20.0384C23.8295 19.7824 23.7015 19.6544 23.4455 19.6544H22.7095C22.4535 19.6544 22.3255 19.7824 22.3255 20.0384V25.0944H17.3335C17.0775 25.0944 16.9495 25.2117 16.9495 25.4464V26.1504C16.9495 26.385 17.0775 26.5024 17.3335 26.5024H22.3255V31.5584C22.3255 31.8144 22.4535 31.9424 22.7095 31.9424H23.4455C23.7015 31.9424 23.8295 31.8144 23.8295 31.5584V26.5024H28.8215C29.0775 26.5024 29.2055 26.385 29.2055 26.1504V25.4464C29.2055 25.2117 29.0775 25.0944 28.8215 25.0944Z" fill="white"/>
</svg>
