<svg width="17" height="17" viewBox="0 0 17 17" fill="none" xmlns="http://www.w3.org/2000/svg">
<g opacity="0.5" clip-path="url(#clip0_350_2150)">
<path d="M7.41064 0.963379H9.41064V8.96338H7.41064V0.963379ZM11.4106 1.55713L11.4575 1.57275C12.1867 1.87484 12.8534 2.27327 13.4575 2.76807C14.0617 3.26286 14.5825 3.83057 15.02 4.47119C15.4575 5.11182 15.7987 5.81234 16.0435 6.57275C16.2882 7.33317 16.4106 8.13005 16.4106 8.96338C16.4106 10.0675 16.2023 11.1066 15.7856 12.0806C15.369 13.0545 14.7987 13.9035 14.0747 14.6274C13.3507 15.3514 12.5018 15.9217 11.5278 16.3384C10.5539 16.755 9.51481 16.9634 8.41064 16.9634C7.30648 16.9634 6.26742 16.755 5.29346 16.3384C4.3195 15.9217 3.47054 15.3514 2.74658 14.6274C2.02262 13.9035 1.45231 13.0545 1.03564 12.0806C0.618978 11.1066 0.410645 10.0675 0.410645 8.96338C0.410645 8.13005 0.53304 7.33317 0.777832 6.57275C1.02262 5.81234 1.36377 5.11182 1.80127 4.47119C2.23877 3.83057 2.76481 3.26025 3.37939 2.76025C3.99398 2.26025 4.67106 1.85921 5.41064 1.55713L5.37939 3.7915C4.94189 4.05192 4.53825 4.36442 4.16846 4.729C3.79867 5.09359 3.48356 5.49723 3.22314 5.93994C2.96273 6.38265 2.76221 6.85921 2.62158 7.36963C2.48096 7.88005 2.41064 8.4113 2.41064 8.96338C2.41064 9.79671 2.56689 10.578 2.87939 11.3071C3.19189 12.0363 3.62158 12.6717 4.16846 13.2134C4.71533 13.755 5.35075 14.1821 6.07471 14.4946C6.79867 14.8071 7.57731 14.9634 8.41064 14.9634C9.24398 14.9634 10.0226 14.8071 10.7466 14.4946C11.4705 14.1821 12.106 13.755 12.6528 13.2134C13.1997 12.6717 13.6294 12.0363 13.9419 11.3071C14.2544 10.578 14.4106 9.79671 14.4106 8.96338C14.4106 8.4113 14.3403 7.88005 14.1997 7.36963C14.0591 6.85921 13.856 6.38265 13.5903 5.93994C13.3247 5.49723 13.007 5.09098 12.6372 4.72119C12.2674 4.3514 11.8586 4.0363 11.4106 3.77588V1.55713Z" fill="white"/>
</g>
<defs>
<clipPath id="clip0_350_2150">
<rect width="16" height="16" fill="white" transform="translate(0.410645 0.963379)"/>
</clipPath>
</defs>
</svg>
