<svg width="17" height="17" viewBox="0 0 17 17" fill="none" xmlns="http://www.w3.org/2000/svg">
<path opacity="0.5" d="M8.41064 0.436035C12.8289 0.436035 16.4106 4.01776 16.4106 8.43604C16.4106 12.8543 12.8289 16.436 8.41064 16.436C3.99237 16.436 0.410645 12.8543 0.410645 8.43604C0.410645 4.01776 3.99237 0.436035 8.41064 0.436035ZM7.33545 11.1997C7.09554 11.1997 6.97519 11.3193 6.9751 11.5591V13.7378C6.97523 14.0015 7.09558 14.1333 7.33545 14.1333H8.93701C9.16501 14.1333 9.27978 14.0074 9.27979 13.7554V11.5415C9.27979 11.3135 9.16501 11.1997 8.93701 11.1997H7.33545ZM7.73096 2.57764C6.78321 2.57771 6.05156 2.82961 5.53564 3.3335C5.01964 3.8375 4.76123 4.55765 4.76123 5.49365V5.90771C4.76134 6.1714 4.88743 6.30314 5.13916 6.30322H6.66943C6.92129 6.30321 7.04725 6.17146 7.04736 5.90771V5.52979C7.04736 5.14578 7.12574 4.87524 7.28174 4.71924C7.44974 4.5634 7.71953 4.48585 8.09131 4.48584H8.41553C8.81146 4.48586 9.09325 4.56981 9.26123 4.73779C9.44115 4.89381 9.53174 5.15787 9.53174 5.52979V5.63721C9.53174 5.99719 9.33952 6.32746 8.95557 6.62744L7.94775 7.45557C7.63579 7.70754 7.41374 7.95946 7.28174 8.21143C7.14974 8.45143 7.0835 8.76953 7.0835 9.16553V9.65088C7.0835 9.90288 7.20943 10.0298 7.46143 10.0298H8.8833C9.1353 10.0298 9.26123 9.90288 9.26123 9.65088V9.18311C9.26132 8.89533 9.41739 8.6076 9.729 8.31982L10.9536 7.32959C11.4935 6.86166 11.7631 6.3335 11.7632 5.74561V5.49365C11.7632 4.5578 11.5056 3.83748 10.9897 3.3335C10.4738 2.82951 9.74143 2.57765 8.79346 2.57764H7.73096Z" fill="white"/>
</svg>
